<svg width="29" height="36" viewBox="0 0 29 36" fill="none" xmlns="http://www.w3.org/2000/svg">
<path d="M18.25 16.25C18.25 14.325 16.675 12.75 14.75 12.75C12.825 12.75 11.25 14.325 11.25 16.25C11.25 18.175 12.825 19.75 14.75 19.75C16.675 19.75 18.25 18.175 18.25 16.25ZM7.715 28.9375C7.2075 27.3625 6.7175 25.5425 6.385 23.6875L4.25 25.1225V30.3375L7.715 28.9375ZM14.75 0.5C14.75 0.5 23.5 4 23.5 19.75L27.1925 22.2175C28.1725 22.865 28.75 23.9675 28.75 25.1225V35.5L20 32H9.5L0.75 35.5V25.1225C0.75 23.95 1.3275 22.865 2.3075 22.2175L6 19.75C6 4 14.75 0.5 14.75 0.5ZM14.75 4.63C14.75 4.63 9.5 8.165 9.5 19.75C9.5 23.6875 11.25 28.5 11.25 28.5H18.25C18.25 28.5 20 23.6875 20 19.75C20 8.165 14.75 4.63 14.75 4.63ZM25.25 30.3375V25.1225L23.115 23.705C22.7825 25.5425 22.2925 27.38 21.785 28.955L25.25 30.3375Z" fill="#FFB800"/>
</svg>
