<svg width="360" height="267" viewBox="0 0 360 267" fill="none" xmlns="http://www.w3.org/2000/svg">
<g clip-path="url(#clip0_140_74)">
<path d="M359.668 75.546C358.474 69.173 355.024 64.5261 349.318 61.5388C346.996 60.2775 343.745 59.5472 339.631 59.2817C335.518 59.0825 325.898 58.8834 310.837 58.6179C288.345 58.6179 269.569 58.6842 254.508 58.7506C239.447 58.8834 231.286 58.8834 230.026 58.8834C228.765 58.8834 228.301 55.5641 228.765 48.8593C229.163 42.1544 228.964 36.91 228.102 33.0597C226.377 24.5624 224.254 18.5878 221.732 15.0694C219.211 11.551 215.562 9.09473 210.918 7.56788C207.335 6.50572 203.686 5.24441 200.103 3.71755C194.796 1.26131 191.545 0 190.218 0C188.957 0 187.763 1.19493 186.701 3.5184C186.038 5.84187 185.242 8.03257 184.18 10.0241C183.118 12.0157 183.517 16.1979 185.441 22.4381C187.365 28.6783 188.293 33.3252 188.293 36.3125C188.293 39.2998 189.952 44.0796 193.203 50.6517C196.521 57.2238 197.648 61.0077 196.72 61.9371C195.791 62.8665 190.284 63.7959 180.332 64.6589C167.792 65.5219 152.333 68.1773 133.889 72.6251C120.42 76.0107 109.937 78.7989 102.042 80.9896C102.706 67.1151 103.701 56.9582 104.961 50.5853C105.89 45.8056 106.156 42.2208 105.758 39.8309C105.359 37.4411 104.232 34.7193 102.44 31.732C99.9854 28.1472 97.1988 25.691 94.1468 24.4296C91.0948 23.1683 88.3746 21.7079 86.0524 20.1146C82.6687 18.1231 77.1619 16.8618 69.532 16.3971C61.9684 15.9324 54.2721 16.4635 46.5759 18.0567C39.344 19.2516 34.4343 20.5793 31.7141 21.9734C29.0602 23.3675 26.9371 24.0313 25.4111 24.0313C23.8851 24.0313 21.2312 24.7616 17.4494 26.0893C13.6676 27.5497 11.4118 29.3421 10.6157 31.6656C9.88585 33.9227 8.62525 35.1176 6.96657 35.1176C4.97616 35.1176 3.71556 36.2461 3.18478 38.4368C2.58766 40.5612 2.654 44.2787 3.25113 49.4567C4.04729 55.4314 4.24634 75.4796 3.9146 109.469C3.58286 143.524 3.05209 162.643 2.32227 166.825C0.597239 176.584 -0.13258 189.064 0.000114308 204.2C0.000114308 212.365 1.06167 219.8 3.25113 226.439C5.37424 233.144 7.76274 236.463 10.4166 236.463C11.4782 236.463 12.6724 235.268 13.9994 232.878C15.3263 230.488 15.7907 228.497 15.5254 226.904C15.0609 224.912 16.3215 222.589 19.2408 219.999C22.1601 217.41 24.8803 216.149 27.3352 216.149C28.9938 216.149 32.2449 214.888 37.0219 212.432C41.7989 209.909 46.7086 208.382 51.8836 207.652C57.0587 206.988 60.8405 206.324 63.2954 205.727C65.8829 205.129 67.1435 205.66 67.0108 207.254C66.6791 210.241 63.9588 213.361 58.7174 216.547C56.8597 217.942 54.0731 218.605 50.2913 218.605C46.5095 218.605 43.3912 217.942 40.9363 216.547C40.6046 216.348 40.4056 216.282 40.2729 216.282C39.6757 216.282 39.4767 216.68 39.8084 217.477C40.4056 218.672 40.3392 219.668 39.4767 220.464C38.6142 221.261 38.9459 222.721 40.5383 224.779C42.0642 226.837 42.8604 228.231 42.8604 228.961C42.8604 229.692 43.922 230.024 45.9787 230.024C48.0355 230.024 49.0971 230.356 49.0971 231.086C49.0971 231.816 50.7557 234.405 54.0731 238.853C57.3904 243.301 60.0443 248.147 62.0348 253.325C64.4896 259.499 66.2146 263.017 67.0771 263.946C68.006 264.809 69.8637 264.477 72.584 262.884C75.6359 260.893 77.8917 259.233 79.4177 257.972C80.8774 256.644 83.0005 254.121 85.7871 250.337C88.839 246.354 90.7631 242.703 91.4266 239.251C92.09 235.865 92.8199 233.94 93.4833 233.409C94.1468 232.945 94.5449 231.55 94.5449 229.227C94.5449 226.97 94.8766 225.576 95.4738 225.178C96.9997 223.983 97.8623 213.228 97.9949 192.914C97.9949 181.363 98.3267 174.459 99.0565 172.136C99.72 169.879 100.251 162.51 100.582 150.163C100.715 138.28 101.047 123.409 101.445 105.685L103.966 106.481L108.411 102.631C111.397 100.108 114.582 98.7807 117.965 98.7807C121.349 98.7807 124.136 98.3824 126.259 97.5194C131.102 94.9968 140.59 92.1422 154.589 89.0885C168.588 86.0348 180.597 84.0433 190.549 83.1803C194.796 82.7819 197.383 82.6492 198.312 82.8483C199.241 83.0475 199.772 83.7777 199.772 85.1054C199.772 89.1549 195.857 96.9883 188.028 108.672C180.199 120.356 172.038 130.778 163.546 139.873C159.963 143.458 157.309 145.848 155.783 147.043C154.191 148.237 152.201 148.769 149.878 148.769C146.893 148.769 145.035 149.1 144.305 149.698C143.575 150.362 143.642 151.49 144.637 153.216C145.566 154.942 145.035 156.668 143.045 158.461C141.054 160.253 140.59 161.581 141.784 162.444C142.978 163.307 143.31 167.755 142.912 175.854C142.514 182.426 142.514 186.741 143.045 188.732C143.575 190.724 145.301 192.516 148.286 193.977C151.869 195.902 158.172 195.371 167.062 192.383C170.911 191.122 174.692 190.06 178.54 189.197C182.389 188.334 185.374 187.869 187.63 187.736C189.886 187.604 191.213 187.803 191.611 188.201C191.611 189.263 190.682 190.989 188.891 193.313C186.701 195.769 185.772 197.229 185.772 197.893C185.772 198.557 184.313 200.615 181.46 204.134C178.607 207.652 177.147 209.843 177.147 210.838C177.147 211.834 174.361 214.821 168.854 219.933C165.006 223.783 162.683 226.439 161.887 227.899C161.025 229.36 160.627 231.418 160.627 233.94C160.627 237.525 161.025 239.716 161.755 240.446C162.484 241.176 162.883 243.699 162.883 247.948C162.883 256.445 165.404 262.154 170.512 265.141C172.636 266.403 174.361 267.066 175.754 267.066C177.147 267.066 180.265 266.535 185.175 265.473C207.468 260.561 222.197 256.312 229.429 252.727C233.476 250.802 236.528 249.01 238.651 247.284C240.774 245.558 243.229 242.836 245.949 238.986C250.195 233.276 252.849 230.356 253.911 230.356C254.574 230.356 255.769 232.082 257.56 235.467C259.351 238.853 260.28 241.309 260.28 242.77C260.28 244.23 260.678 245.425 261.408 246.288C262.138 247.151 263.929 250.005 266.65 254.918C271.758 264.477 277.066 268.328 282.573 266.403C286.819 264.477 290.402 260.893 293.388 255.582C296.373 250.271 297.435 245.292 296.572 240.579C296.174 236.729 295.909 233.808 295.909 231.683C295.909 227.435 293.786 221.858 289.539 214.954C285.293 208.05 281.047 203.337 276.801 200.748C273.417 198.424 268.574 196.234 262.337 194.242C256.1 192.251 251.788 191.454 249.466 191.852C246.679 192.051 244.954 193.379 244.224 195.835C243.494 198.292 243.826 201.146 245.352 204.465C246.812 207.785 247.608 210.374 247.608 212.299C247.608 214.025 245.485 216.415 241.239 219.601C236.992 222.788 232.547 225.244 227.903 226.904C225.382 227.767 220.87 228.497 214.368 229.161C207.866 229.824 202.359 230.09 197.847 230.09C193.336 230.09 190.682 229.891 190.085 229.426C190.085 228.364 191.943 226.041 195.658 222.389C199.373 218.805 202.293 214.755 204.416 210.307C208.264 202.872 215.031 193.313 224.784 181.629C226.709 179.306 228.235 176.916 229.429 174.459C230.623 172.003 231.685 170.808 232.613 170.808C233.542 170.808 234.007 170.277 234.007 169.215C234.007 167.755 237.059 163.24 243.229 155.673C249.399 148.105 256.565 140.205 264.858 131.907C269.502 127.26 272.289 123.542 273.152 120.754C274.014 117.966 273.483 114.713 271.559 110.863C269.834 107.477 266.65 103.494 261.873 98.9135C257.096 94.3329 253.845 92.0758 252.186 92.0758C249.399 92.0758 243.163 101.502 233.41 120.422C230.026 126.795 227.571 131.243 226.111 133.832L218.15 145.914L213.041 154.544L208.994 151.358C207.07 149.897 205.278 149.034 203.62 148.835C201.895 148.636 198.113 148.702 192.142 149.167L179.138 149.764L190.284 135.425C197.715 125.667 202.492 119.36 204.615 116.439C206.738 113.585 208.728 111.726 210.653 110.863C213.837 109.402 215.761 106.481 216.358 102.233C217.022 97.9841 216.425 94.0674 214.633 90.4162C212.842 86.8314 210.122 84.9727 206.539 84.9727C205.477 84.9727 204.748 84.8399 204.283 84.6407C202.558 83.3794 202.824 82.3173 204.947 81.4543C207.269 80.7904 219.079 80.1929 240.243 79.5291C261.474 78.8652 274.279 78.998 278.725 79.861C285.293 80.5249 294.117 81.3215 305.131 82.2509C316.145 83.1803 325.301 85.371 332.466 88.7566C338.172 91.0801 342.352 92.3414 344.873 92.4078C347.394 92.5405 350.711 91.412 354.759 89.0885C359.204 86.4331 360.796 81.9189 359.668 75.546ZM73.8446 74.5502C73.8446 96.0589 73.5792 118.696 73.1811 142.329C72.7167 166.029 72.1859 178.177 71.5888 178.774C71.4561 179.173 69.731 178.376 66.5464 176.385C64.0915 174.991 60.3097 174.061 55.2673 173.53C50.225 173.065 46.8412 173.397 45.1162 174.592C43.8556 175.588 39.6757 177.248 32.5766 179.637C25.4111 182.027 21.2976 183.421 20.236 183.82C19.7716 184.218 19.4398 184.417 19.3072 184.417C18.511 184.417 18.2456 178.974 18.3783 167.954C18.71 156.602 19.1745 149.1 19.7716 145.383C20.3687 141.732 20.7004 138.944 20.7004 137.151C20.5677 135.16 20.8331 133.168 21.6293 131.177C22.4255 129.185 23.2216 128.189 24.1505 128.189C25.3447 128.189 27.0698 127.525 29.1929 126.131C39.344 120.157 45.647 117.568 48.1018 118.364C50.424 118.763 52.7461 118.099 55.1346 116.439C57.5231 114.779 59.1818 112.522 60.1107 109.734C61.1722 106.349 61.703 103.693 61.703 101.702C61.703 99.7101 61.0395 97.3202 59.6463 94.5321C57.9876 91.1464 55.9308 88.8894 53.675 87.628C51.3529 86.4331 47.7701 85.6365 42.8604 85.2382C36.8892 85.039 33.5718 85.7029 33.041 87.1634C32.5102 88.6238 30.4535 90.2171 26.8044 91.8103C23.2216 93.4035 21.0985 93.6027 20.4351 92.4078C19.8379 91.2128 19.7716 84.4416 20.236 72.094L20.5677 53.639L16.6533 48.2618C14.1321 44.677 13.0705 42.6855 13.2696 42.2872C13.5349 41.8889 16.5206 42.2208 22.2928 43.3493C28.065 44.4115 31.8468 44.2787 33.7045 42.8846C39.0786 38.9015 50.1586 36.91 66.8781 36.91H73.7782V74.5502H73.8446Z" fill="#ED1E35"/>
</g>
<defs>
<clipPath id="clip0_140_74">
<rect width="360" height="267" fill="white"/>
</clipPath>
</defs>
</svg>
