<svg width="60" height="57" viewBox="0 0 60 57" fill="none" xmlns="http://www.w3.org/2000/svg">
<path d="M11.0368 52.0686C10.8914 52.3171 10.8593 52.5688 10.9403 52.8237C11.0214 53.0787 11.2113 53.3147 11.5101 53.5318C11.7131 53.6793 11.9054 53.7751 12.087 53.8192C12.2671 53.8652 12.4307 53.8656 12.5778 53.8203C12.7229 53.7736 12.8414 53.687 12.9333 53.5606C13.0136 53.458 13.0584 53.3501 13.0676 53.2368C13.0748 53.1221 13.0562 53.0047 13.0118 52.8846C12.966 52.7664 12.9018 52.6452 12.8195 52.521C12.7357 52.3987 12.6401 52.2765 12.5326 52.1546L12.0958 51.6441C11.8809 51.4002 11.701 51.1524 11.5561 50.9008C11.4111 50.6492 11.3109 50.3964 11.2555 50.1425C11.2 49.8886 11.1981 49.6355 11.2496 49.3833C11.2993 49.1296 11.4122 48.8795 11.5884 48.633C11.8519 48.2743 12.1707 48.0289 12.5447 47.8968C12.9154 47.7652 13.324 47.7505 13.7707 47.8526C14.2141 47.9553 14.6752 48.1805 15.154 48.5284C15.629 48.8735 15.9898 49.2469 16.2365 49.6485C16.4812 50.0487 16.5986 50.4632 16.5885 50.8919C16.5751 51.3211 16.4195 51.7508 16.1215 52.1811L14.9177 51.3065C15.0477 51.0995 15.1108 50.8937 15.1073 50.6892C15.1004 50.4852 15.037 50.2885 14.9172 50.099C14.794 49.91 14.6252 49.7376 14.4107 49.5817C14.2 49.4287 13.9948 49.3264 13.7952 49.275C13.5936 49.2222 13.41 49.219 13.2445 49.2656C13.079 49.3122 12.9448 49.4063 12.8418 49.548C12.7458 49.6802 12.7043 49.8198 12.7175 49.9669C12.7287 50.1125 12.786 50.2713 12.8895 50.443C12.991 50.6134 13.1303 50.8023 13.3072 51.0099L13.831 51.6362C14.2394 52.1173 14.494 52.5905 14.5948 53.0559C14.6957 53.5213 14.5872 53.9707 14.2694 54.404C14.0125 54.7617 13.6915 55.004 13.3066 55.1311C12.9197 55.2568 12.5035 55.2719 12.0578 55.1763C11.6122 55.0808 11.1749 54.8772 10.7459 54.5655C10.3092 54.2482 9.9823 53.8966 9.76524 53.5107C9.54627 53.1233 9.44252 52.7304 9.45399 52.332C9.46546 51.9336 9.59565 51.5571 9.84455 51.2024L11.0368 52.0686Z" fill="#FF002E"/>
<path d="M6.29933 36.2373C6.46979 36.7619 6.50575 37.2518 6.40721 37.707C6.30569 38.1607 6.08819 38.5562 5.75472 38.8936C5.419 39.2316 4.98545 39.487 4.45409 39.6597C3.91822 39.8338 3.41624 39.8824 2.94816 39.8055C2.47783 39.7293 2.06939 39.5371 1.72285 39.229C1.37333 38.9194 1.11334 38.5023 0.942881 37.9777C0.772424 37.4531 0.737955 36.964 0.839474 36.5103C0.93801 36.0551 1.15514 35.6585 1.49086 35.3204C1.82434 34.983 2.25901 34.7273 2.79488 34.5531C3.32624 34.3805 3.82709 34.3323 4.29743 34.4085C4.76551 34.4854 5.17431 34.6786 5.52383 34.9883C5.87037 35.2963 6.12887 35.7127 6.29933 36.2373ZM5.18261 36.5927C5.10507 36.354 4.97278 36.1767 4.78574 36.0607C4.59645 35.9455 4.37044 35.8858 4.10769 35.8815C3.84421 35.875 3.56161 35.9208 3.2599 36.0188C2.95819 36.1169 2.70267 36.2459 2.49332 36.4061C2.28325 36.5639 2.13551 36.7451 2.0501 36.9496C1.9647 37.1541 1.96077 37.3757 2.03832 37.6143C2.1166 37.8552 2.25111 38.0356 2.44186 38.1553C2.63188 38.2728 2.85863 38.3348 3.12211 38.3413C3.38486 38.3455 3.66709 38.2986 3.9688 38.2006C4.27051 38.1025 4.5264 37.9746 4.73647 37.8167C4.94582 37.6566 5.09283 37.4732 5.1775 37.2664C5.25919 37.0582 5.26089 36.8336 5.18261 36.5927Z" fill="#FF002E"/>
<path d="M2.89236 20.8558L5.89143 21.8302L5.42396 23.269L0.236375 21.5834L0.681903 20.2122L1.59716 20.5096L1.61691 20.4488C1.35251 20.236 1.1764 19.9659 1.08857 19.6387C0.998483 19.3107 1.01599 18.9542 1.14109 18.5692C1.25814 18.2089 1.439 17.9204 1.68367 17.7037C1.92833 17.487 2.22116 17.3519 2.56215 17.2984C2.90088 17.2441 3.27176 17.2825 3.67479 17.4135L6.97782 18.4867L6.51034 19.9254L3.46399 18.9356C3.14725 18.8302 2.87325 18.8308 2.64197 18.9373C2.40844 19.0432 2.24485 19.2402 2.15121 19.5284C2.0883 19.722 2.07435 19.9067 2.10937 20.0824C2.14513 20.2558 2.2294 20.4101 2.36219 20.5454C2.49347 20.6776 2.67019 20.7811 2.89236 20.8558Z" fill="#FF002E"/>
<path d="M16.5365 10.1655C16.1401 10.4536 15.7604 10.646 15.3977 10.7428C15.0382 10.8401 14.7076 10.8564 14.406 10.7916C14.1044 10.7269 13.8445 10.5968 13.6264 10.4012L14.6477 9.42655C14.7462 9.4896 14.8606 9.5323 14.9909 9.55464C15.1213 9.57698 15.2645 9.56661 15.4204 9.52352C15.5797 9.48095 15.7484 9.39496 15.9265 9.26555C16.1928 9.07212 16.3647 8.84767 16.4425 8.59219C16.5236 8.33724 16.4542 8.05846 16.2343 7.75584L15.6478 6.94855L15.596 6.98612C15.6315 7.14766 15.6352 7.32198 15.6073 7.50908C15.5793 7.69617 15.5062 7.88543 15.3877 8.07683C15.2693 8.26824 15.0932 8.44882 14.8595 8.61859C14.5282 8.85933 14.1709 9.00188 13.7876 9.04626C13.4048 9.08733 13.0175 9.00734 12.6256 8.80629C12.2342 8.60193 11.8611 8.25556 11.5063 7.76716C11.1431 7.26727 10.9212 6.7906 10.8404 6.33714C10.7597 5.88368 10.7939 5.47554 10.9428 5.1127C11.0938 4.74847 11.331 4.44877 11.6547 4.2136C11.9018 4.0341 12.1393 3.92595 12.3671 3.88916C12.5936 3.85045 12.8028 3.85647 12.9948 3.90721C13.1872 3.95464 13.3544 4.01756 13.4962 4.09595L13.5422 4.06255L13.0037 3.32134L14.2189 2.43841L17.4563 6.89432C17.7291 7.26972 17.8653 7.65062 17.8652 8.03703C17.865 8.42343 17.748 8.79812 17.5142 9.16109C17.2838 9.52458 16.9579 9.8594 16.5365 10.1655ZM14.5794 7.41747C14.7767 7.27414 14.9079 7.10424 14.9729 6.90776C15.0384 6.70797 15.0408 6.48971 14.98 6.25296C14.9197 6.01291 14.7956 5.7636 14.6078 5.50504C14.4199 5.24647 14.2207 5.04882 14.0102 4.91209C13.7982 4.77344 13.585 4.70154 13.3706 4.69639C13.1562 4.69124 12.9503 4.76033 12.753 4.90365C12.5519 5.04977 12.4221 5.2275 12.3635 5.43686C12.3035 5.64431 12.3077 5.86954 12.376 6.11256C12.4443 6.35557 12.5696 6.60253 12.7519 6.85343C12.9369 7.10817 13.1324 7.30268 13.3382 7.43698C13.5446 7.56797 13.7527 7.63482 13.9624 7.63753C14.1726 7.63693 14.3783 7.56358 14.5794 7.41747Z" fill="#FF002E"/>
<path d="M42.0038 6.61554L46.2786 0.731778L47.5226 1.63558L45.7588 4.06321L48.2841 5.89795L50.0479 3.47032L51.289 4.37204L47.0142 10.2558L45.7731 9.35408L47.5389 6.92358L45.0136 5.08884L43.2478 7.51934L42.0038 6.61554Z" fill="#FF002E"/>
<path d="M51.1791 20.1932C51.1199 20.0108 51.0789 19.8349 51.0562 19.6656C51.032 19.4992 51.0245 19.3572 51.0336 19.2398L52.213 19.215C52.2161 19.4007 52.2373 19.5618 52.2767 19.6984C52.3168 19.8372 52.3867 19.9452 52.4865 20.0223C52.5869 20.1017 52.7285 20.1465 52.9111 20.1569L53.158 20.17L57.8896 16.5753L58.3812 18.0883L54.9205 20.4001L54.9381 20.4542L59.1 20.3005L59.5949 21.8237L53.1915 21.6751C52.8809 21.669 52.5949 21.6163 52.3336 21.517C52.0708 21.4206 51.8422 21.2647 51.6477 21.0491C51.4509 20.8342 51.2947 20.5489 51.1791 20.1932Z" fill="#FF002E"/>
<path d="M55.4571 37.9323L58.4359 38.9001L57.9684 40.3389L52.7808 38.6533L53.2297 37.272L54.1719 37.5782L54.1895 37.5241C53.9236 37.3083 53.7426 37.0342 53.6465 36.7017C53.5496 36.3715 53.5645 36.0117 53.6911 35.6222C53.8037 35.2754 53.9816 34.996 54.2248 34.7837C54.4681 34.5715 54.759 34.4383 55.0978 34.3841C55.4358 34.3321 55.8078 34.3708 56.2138 34.5002L59.5168 35.5735L59.0493 37.0122L56.003 36.0224C55.696 35.9251 55.4273 35.9287 55.1967 36.033C54.9662 36.1373 54.8067 36.3257 54.7181 36.5981C54.6618 36.7715 54.6485 36.9464 54.6783 37.1229C54.7104 37.3001 54.7902 37.4604 54.9178 37.6039C55.0447 37.7497 55.2245 37.8592 55.4571 37.9323Z" fill="#FF002E"/>
<path d="M47.168 50.6872L45.3145 48.136L46.5384 47.2468L49.7445 51.6596L48.578 52.5071L48.0124 51.7285L47.9607 51.7661C48.0495 52.0937 48.0332 52.4157 47.9119 52.7321C47.792 53.0504 47.5683 53.3285 47.2408 53.5665C46.9343 53.7891 46.6185 53.9162 46.2931 53.9477C45.9678 53.9792 45.6515 53.9164 45.3442 53.7593C45.0383 53.604 44.7608 53.355 44.5117 53.0122L42.4703 50.2024L43.6942 49.3133L45.5769 51.9046C45.7712 52.1761 45.9932 52.3367 46.243 52.3864C46.4941 52.438 46.7422 52.3748 46.9874 52.1967C47.1521 52.077 47.2719 51.9358 47.3469 51.7731C47.4199 51.6118 47.4424 51.4374 47.4145 51.2499C47.386 51.0658 47.3039 50.8782 47.168 50.6872Z" fill="#FF002E"/>
</svg>
