<svg width="174" height="38" viewBox="0 0 174 38" fill="none" xmlns="http://www.w3.org/2000/svg">
<path d="M0.92 7.24C1 3.28 4.76 -1.90735e-06 10.52 -1.90735e-06C12.2 -1.90735e-06 13.84 0.279999 15.4 0.839999C16.24 1.12 17.32 1.2 17.08 -1.90735e-06H18L19.36 8.12H18.6C16.36 2.6 13.24 0.879999 9.96 0.879999C7.12 0.879999 3.76 2.24 4 5.68C4.24 8.88 7.6 9.72 10.52 10.92C14.2 12.44 18.64 14 19.28 18.56C20.08 24.2 15.76 28.08 9.32 28.08C7.68 28.08 6 27.8 4.48 27.24C3.64 26.96 2.56 26.88 2.76 28.08H1.88L0.48 19.56H1.36C2.76 25.04 5.68 27.2 9.32 27.2C13.76 27.2 16.96 24.96 16.6 21.2C16.32 18.12 12.08 16.8 9.16 15.68C6.04 14.48 0.84 12.36 0.92 7.24ZM30.4819 8.68C36.3219 8.68 40.1219 12.48 40.1219 18.32C40.1219 24.2 36.3219 28 30.4819 28C24.6019 28 20.8019 24.2 20.8019 18.32C20.8019 12.48 24.6019 8.68 30.4819 8.68ZM36.2019 18.32C36.2019 13 33.9219 9.56 30.4819 9.56C27.0019 9.56 24.7219 13 24.7219 18.32C24.7219 23.68 27.0019 27.12 30.4819 27.12C33.9219 27.12 36.2019 23.68 36.2019 18.32ZM43.3553 25.52V12.12C43.3553 10.92 42.5953 10.64 41.6753 10.56V9.64C42.8753 9.64 46.0353 9.72 46.6753 8.68H47.3153V11.56C49.1153 9.64 50.6353 8.68 53.3953 8.68C56.4353 8.68 58.5153 9.88 58.5153 13.76V25.52C58.5153 27.16 59.9153 27.12 61.1953 27.12V28H51.8753V27.12C53.1553 27.12 54.5553 27.16 54.5553 25.52V13.12V12.36C54.5553 8.68 49.2353 9 47.3153 13.72V25.52C47.3153 27.16 48.7153 27.12 49.9953 27.12V28H40.6753V27.12C41.9553 27.12 43.3553 27.16 43.3553 25.52ZM66.3234 32C68.5634 35.92 73.6834 36.4 76.5234 35.2C78.6434 34.32 79.3234 32.52 78.3634 30.88C76.4434 27.6 68.5634 30.92 65.4034 29.68C61.5634 28.16 62.5234 24.4 67.0034 23.08C64.3234 21.6 62.5234 19.44 62.5234 16.52C62.5234 12 66.8434 8.68 72.2034 8.68C73.5234 8.68 74.8034 8.92 75.9634 9.32C76.3634 9.12 76.8034 9 77.2834 8.84C78.2834 8.56 81.6034 7.12 81.7234 7.12L83.5634 9.4L83.2434 9.72C81.2034 8.92 79.0034 9.04 77.0434 9.8C79.9234 11.2 81.8434 13.52 81.8434 16.52C81.8434 21.04 77.5234 24.36 72.2034 24.36C70.9234 24.36 69.7234 24.16 68.6034 23.76C67.6034 23.92 65.3234 24.24 65.7234 25.8C66.3634 28.32 77.5234 23.8 80.5234 27.88C81.7234 29.48 81.9634 31.84 81.0834 33.64C79.1634 37.56 73.4034 37.32 69.8434 35.84C69.0034 35.48 65.9634 34.6 65.9234 34.56V32L66.3234 32ZM72.2034 9.44C69.0034 9.44 66.4434 12.4 66.4434 16.52C66.4434 20.64 69.0034 23.6 72.2034 23.6C75.3634 23.6 77.9234 20.64 77.9234 16.52C77.9234 12.4 75.3634 9.44 72.2034 9.44ZM103.787 2.48C103.787 0.839999 102.427 0.879999 101.107 0.879999V-1.90735e-06H110.427V0.879999C109.147 0.879999 107.747 0.839999 107.747 2.44V25.64C107.747 27.24 109.147 27.2 110.427 27.2V28.08H101.107V27.2C102.427 27.2 103.787 27.24 103.787 25.6V14.48L91.0672 14.48V25.64C91.0672 27.24 92.4672 27.2 93.7472 27.2V28.08H84.4272V27.2C85.7072 27.2 87.1072 27.24 87.1072 25.6V2.48C87.1072 0.839999 85.7072 0.879999 84.4272 0.879999V-1.90735e-06H93.7472V0.879999C92.4672 0.879999 91.0672 0.839999 91.0672 2.44V13.6L103.787 13.6V2.48ZM121.434 28C120.114 30.92 118.834 33.84 117.514 36.76H114.314L114.434 35.88C114.434 35.88 116.994 35.88 117.874 33.96L120.874 27.24L113.674 11.16C112.954 9.52 111.594 9.56 110.314 9.56L110.194 8.68H119.194L119.314 9.56C118.154 9.56 116.954 9.64 117.634 11.12L122.834 22.8L127.594 12.16C127.834 11.64 128.034 11.12 128.274 10.56C128.674 9.68 127.274 9.6 126.554 9.56L126.634 8.68H132.394L132.274 9.56C131.394 9.56 129.914 9.52 129.314 10.36L121.434 28ZM145.944 12.12C145.944 10.92 145.184 10.64 144.264 10.56V9.64C145.464 9.64 148.624 9.72 149.264 8.68H149.904V25.52C149.904 27.16 151.264 27.12 152.584 27.12V28H145.944V25.96C144.064 27.2 142.224 28.04 139.424 28C136.824 27.96 134.744 26.8 134.744 24.24V12.12C134.744 10.92 133.984 10.64 133.064 10.56V9.64C134.264 9.64 137.424 9.72 138.064 8.68H138.704V12.12C138.704 15.92 138.704 19.72 138.704 23.52V24.32C138.704 28 142.864 26.88 145.944 24.4V12.76V12.12ZM156.051 25.52V12.12C156.051 10.92 155.291 10.64 154.371 10.56V9.64C155.571 9.64 158.731 9.72 159.371 8.68H160.011V11.56C161.811 9.64 163.331 8.68 166.091 8.68C169.131 8.68 171.211 9.88 171.211 13.76V25.52C171.211 27.16 172.611 27.12 173.891 27.12V28H164.571V27.12C165.851 27.12 167.251 27.16 167.251 25.52V13.12V12.36C167.251 8.68 161.931 9 160.011 13.72V25.52C160.011 27.16 161.411 27.12 162.691 27.12V28L153.371 28V27.12C154.651 27.12 156.051 27.16 156.051 25.52Z" fill="white"/>
</svg>
