<svg width="77" height="77" viewBox="0 0 77 77" fill="none" xmlns="http://www.w3.org/2000/svg">
<path d="M20.0368 62.0686C19.8914 62.3171 19.8593 62.5688 19.9403 62.8237C20.0214 63.0787 20.2113 63.3147 20.5101 63.5318C20.7131 63.6793 20.9054 63.7751 21.087 63.8192C21.2671 63.8652 21.4307 63.8656 21.5778 63.8203C21.7229 63.7736 21.8414 63.687 21.9333 63.5606C22.0136 63.458 22.0584 63.3501 22.0676 63.2368C22.0748 63.1221 22.0562 63.0047 22.0118 62.8846C21.966 62.7664 21.9018 62.6452 21.8195 62.521C21.7357 62.3987 21.6401 62.2765 21.5326 62.1546L21.0958 61.6441C20.8809 61.4002 20.701 61.1524 20.5561 60.9008C20.4111 60.6492 20.3109 60.3964 20.2555 60.1425C20.2 59.8886 20.1981 59.6355 20.2496 59.3833C20.2993 59.1296 20.4122 58.8795 20.5884 58.633C20.8519 58.2743 21.1707 58.0289 21.5447 57.8968C21.9154 57.7652 22.324 57.7505 22.7707 57.8526C23.2141 57.9553 23.6752 58.1805 24.154 58.5284C24.629 58.8735 24.9898 59.2469 25.2365 59.6485C25.4812 60.0487 25.5986 60.4632 25.5885 60.8919C25.5751 61.3211 25.4195 61.7508 25.1215 62.1811L23.9177 61.3065C24.0477 61.0995 24.1108 60.8937 24.1073 60.6892C24.1004 60.4852 24.037 60.2885 23.9172 60.099C23.794 59.91 23.6252 59.7376 23.4107 59.5817C23.2 59.4287 22.9948 59.3264 22.7952 59.275C22.5936 59.2222 22.41 59.219 22.2445 59.2656C22.079 59.3122 21.9448 59.4063 21.8418 59.548C21.7458 59.6802 21.7043 59.8198 21.7175 59.9669C21.7287 60.1125 21.786 60.2713 21.8895 60.443C21.991 60.6134 22.1303 60.8023 22.3072 61.0099L22.831 61.6362C23.2394 62.1173 23.494 62.5905 23.5948 63.0559C23.6957 63.5213 23.5872 63.9707 23.2694 64.404C23.0125 64.7617 22.6915 65.004 22.3066 65.1311C21.9197 65.2568 21.5035 65.2719 21.0578 65.1763C20.6122 65.0808 20.1749 64.8772 19.7459 64.5655C19.3092 64.2482 18.9823 63.8966 18.7652 63.5107C18.5463 63.1233 18.4425 62.7304 18.454 62.332C18.4655 61.9336 18.5956 61.5571 18.8446 61.2024L20.0368 62.0686Z" fill="#FF002E"/>
<path d="M15.2993 46.2373C15.4698 46.7619 15.5057 47.2518 15.4072 47.707C15.3057 48.1607 15.0882 48.5562 14.7547 48.8936C14.419 49.2316 13.9855 49.487 13.4541 49.6597C12.9182 49.8338 12.4162 49.8824 11.9482 49.8055C11.4778 49.7293 11.0694 49.5371 10.7229 49.229C10.3733 48.9194 10.1133 48.5023 9.94288 47.9777C9.77242 47.4531 9.73796 46.964 9.83947 46.5103C9.93801 46.0551 10.1551 45.6585 10.4909 45.3204C10.8243 44.983 11.259 44.7273 11.7949 44.5531C12.3262 44.3805 12.8271 44.3323 13.2974 44.4085C13.7655 44.4854 14.1743 44.6786 14.5238 44.9883C14.8704 45.2963 15.1289 45.7127 15.2993 46.2373ZM14.1826 46.5927C14.1051 46.354 13.9728 46.1767 13.7857 46.0607C13.5965 45.9455 13.3704 45.8858 13.1077 45.8815C12.8442 45.875 12.5616 45.9208 12.2599 46.0188C11.9582 46.1169 11.7027 46.2459 11.4933 46.4061C11.2832 46.5639 11.1355 46.7451 11.0501 46.9496C10.9647 47.1541 10.9608 47.3757 11.0383 47.6143C11.1166 47.8552 11.2511 48.0356 11.4419 48.1553C11.6319 48.2728 11.8586 48.3348 12.1221 48.3413C12.3849 48.3455 12.6671 48.2986 12.9688 48.2006C13.2705 48.1025 13.5264 47.9746 13.7365 47.8167C13.9458 47.6566 14.0928 47.4732 14.1775 47.2664C14.2592 47.0582 14.2609 46.8336 14.1826 46.5927Z" fill="#FF002E"/>
<path d="M11.8924 30.8558L14.8914 31.8302L14.424 33.269L9.23637 31.5834L9.6819 30.2122L10.5972 30.5096L10.6169 30.4488C10.3525 30.236 10.1764 29.9659 10.0886 29.6387C9.99848 29.3107 10.016 28.9542 10.1411 28.5692C10.2581 28.2089 10.439 27.9204 10.6837 27.7037C10.9283 27.487 11.2212 27.3519 11.5621 27.2984C11.9009 27.2441 12.2718 27.2825 12.6748 27.4135L15.9778 28.4867L15.5103 29.9254L12.464 28.9356C12.1473 28.8302 11.8732 28.8308 11.642 28.9373C11.4084 29.0432 11.2449 29.2402 11.1512 29.5284C11.0883 29.722 11.0744 29.9067 11.1094 30.0824C11.1451 30.2558 11.2294 30.4101 11.3622 30.5454C11.4935 30.6776 11.6702 30.7811 11.8924 30.8558Z" fill="#FF002E"/>
<path d="M25.5365 20.1655C25.1401 20.4536 24.7604 20.646 24.3977 20.7428C24.0382 20.8401 23.7076 20.8564 23.406 20.7916C23.1044 20.7269 22.8445 20.5968 22.6264 20.4012L23.6477 19.4265C23.7462 19.4896 23.8606 19.5323 23.9909 19.5546C24.1213 19.577 24.2645 19.5666 24.4204 19.5235C24.5797 19.481 24.7484 19.395 24.9265 19.2655C25.1928 19.0721 25.3647 18.8477 25.4425 18.5922C25.5236 18.3372 25.4542 18.0585 25.2343 17.7558L24.6478 16.9485L24.596 16.9861C24.6315 17.1477 24.6352 17.322 24.6073 17.5091C24.5793 17.6962 24.5062 17.8854 24.3877 18.0768C24.2693 18.2682 24.0932 18.4488 23.8595 18.6186C23.5282 18.8593 23.1709 19.0019 22.7876 19.0463C22.4048 19.0873 22.0175 19.0073 21.6256 18.8063C21.2342 18.6019 20.8611 18.2556 20.5063 17.7672C20.1431 17.2673 19.9212 16.7906 19.8404 16.3371C19.7597 15.8837 19.7939 15.4755 19.9428 15.1127C20.0938 14.7485 20.331 14.4488 20.6547 14.2136C20.9018 14.0341 21.1393 13.9259 21.3671 13.8892C21.5936 13.8504 21.8028 13.8565 21.9948 13.9072C22.1872 13.9546 22.3544 14.0176 22.4962 14.096L22.5422 14.0626L22.0037 13.3213L23.2189 12.4384L26.4563 16.8943C26.7291 17.2697 26.8653 17.6506 26.8652 18.037C26.865 18.4234 26.748 18.7981 26.5142 19.1611C26.2838 19.5246 25.9579 19.8594 25.5365 20.1655ZM23.5794 17.4175C23.7767 17.2741 23.9079 17.1042 23.9729 16.9078C24.0384 16.708 24.0408 16.4897 23.98 16.253C23.9197 16.0129 23.7956 15.7636 23.6078 15.505C23.4199 15.2465 23.2207 15.0488 23.0102 14.9121C22.7982 14.7734 22.585 14.7015 22.3706 14.6964C22.1562 14.6912 21.9503 14.7603 21.753 14.9037C21.5519 15.0498 21.4221 15.2275 21.3635 15.4369C21.3035 15.6443 21.3077 15.8695 21.376 16.1126C21.4443 16.3556 21.5696 16.6025 21.7519 16.8534C21.9369 17.1082 22.1324 17.3027 22.3382 17.437C22.5446 17.568 22.7527 17.6348 22.9624 17.6375C23.1726 17.6369 23.3783 17.5636 23.5794 17.4175Z" fill="#FF002E"/>
<path d="M51.0038 16.6155L55.2786 10.7318L56.5226 11.6356L54.7588 14.0632L57.2841 15.8979L59.0479 13.4703L60.289 14.372L56.0142 20.2558L54.7731 19.3541L56.5389 16.9236L54.0136 15.0888L52.2478 17.5193L51.0038 16.6155Z" fill="#FF002E"/>
<path d="M60.1791 30.1932C60.1199 30.0108 60.0789 29.8349 60.0562 29.6656C60.032 29.4992 60.0245 29.3572 60.0336 29.2398L61.213 29.215C61.2161 29.4007 61.2373 29.5618 61.2767 29.6984C61.3168 29.8372 61.3867 29.9452 61.4865 30.0223C61.5869 30.1017 61.7285 30.1465 61.9111 30.1569L62.158 30.17L66.8896 26.5753L67.3812 28.0883L63.9205 30.4001L63.9381 30.4542L68.1 30.3005L68.5949 31.8237L62.1915 31.6751C61.8809 31.669 61.5949 31.6163 61.3336 31.517C61.0708 31.4206 60.8422 31.2647 60.6477 31.0491C60.4509 30.8342 60.2947 30.5489 60.1791 30.1932Z" fill="#FF002E"/>
<path d="M64.4571 47.9323L67.4359 48.9001L66.9684 50.3389L61.7808 48.6533L62.2297 47.272L63.1719 47.5782L63.1895 47.5241C62.9236 47.3083 62.7426 47.0342 62.6465 46.7017C62.5496 46.3715 62.5645 46.0117 62.6911 45.6222C62.8037 45.2754 62.9816 44.996 63.2248 44.7837C63.4681 44.5715 63.759 44.4383 64.0978 44.3841C64.4358 44.3321 64.8078 44.3708 65.2138 44.5002L68.5168 45.5735L68.0493 47.0122L65.003 46.0224C64.696 45.9251 64.4273 45.9287 64.1967 46.033C63.9662 46.1373 63.8067 46.3257 63.7181 46.5981C63.6618 46.7715 63.6485 46.9464 63.6783 47.1229C63.7104 47.3001 63.7902 47.4604 63.9178 47.6039C64.0447 47.7497 64.2245 47.8592 64.4571 47.9323Z" fill="#FF002E"/>
<path d="M56.168 60.6872L54.3145 58.136L55.5384 57.2468L58.7445 61.6596L57.578 62.5071L57.0124 61.7285L56.9607 61.7661C57.0495 62.0937 57.0332 62.4157 56.9119 62.7321C56.792 63.0504 56.5683 63.3285 56.2408 63.5665C55.9343 63.7891 55.6185 63.9162 55.2931 63.9477C54.9678 63.9792 54.6515 63.9164 54.3442 63.7593C54.0383 63.604 53.7608 63.355 53.5117 63.0122L51.4703 60.2024L52.6942 59.3133L54.5769 61.9046C54.7712 62.1761 54.9932 62.3367 55.243 62.3864C55.4941 62.438 55.7422 62.3748 55.9874 62.1967C56.1521 62.077 56.2719 61.9358 56.3469 61.7731C56.4199 61.6118 56.4424 61.4374 56.4145 61.2499C56.386 61.0658 56.3039 60.8782 56.168 60.6872Z" fill="#FF002E"/>
<circle cx="38.5" cy="38.5" r="38" transform="matrix(1 0 0 -1 0 77)" stroke="#FF002E"/>
<circle cx="38.5" cy="11.5" r="2.5" fill="#FF002E"/>
<circle cx="38.5" cy="65.5" r="2.5" fill="#FF002E"/>
</svg>
