<svg width="603" height="740" viewBox="0 0 603 740" fill="none" xmlns="http://www.w3.org/2000/svg">
<path d="M331.312 109.317V709.682C331.335 713.652 330.573 717.587 329.07 721.261C327.566 724.935 325.351 728.275 322.553 731.091C319.754 733.906 316.426 736.14 312.76 737.664C309.095 739.189 305.164 739.973 301.195 739.973C297.225 739.973 293.294 739.189 289.629 737.664C285.963 736.14 282.636 733.906 279.837 731.091C277.038 728.275 274.823 724.935 273.32 721.261C271.816 717.587 271.054 713.652 271.077 709.682V109.317L51.4591 342.668C48.7503 345.626 45.4558 347.988 41.7849 349.604C38.1139 351.22 34.147 352.054 30.1361 352.054C26.1253 352.054 22.1583 351.22 18.4874 349.604C14.8164 347.988 11.5219 345.626 8.81311 342.668C3.14524 336.499 0 328.427 0 320.05C0 311.673 3.14524 303.601 8.81311 297.432L279.871 9.38686C282.58 6.42875 285.874 4.0666 289.546 2.45057C293.217 0.834543 297.184 0 301.195 0C305.206 0 309.173 0.834543 312.844 2.45057C316.515 4.0666 319.809 6.42875 322.518 9.38686L593.577 297.432C599.228 303.597 602.363 311.657 602.363 320.02C602.363 328.383 599.228 336.443 593.577 342.608C590.868 345.566 587.574 347.928 583.903 349.544C580.232 351.16 576.265 351.995 572.254 351.995C568.243 351.995 564.276 351.16 560.604 349.544C556.933 347.928 553.639 345.566 550.93 342.608L331.312 109.378V109.317Z" fill="white"/>
</svg>
